# xmcd
#
# Track frame offsets:
#	150
#	28320
#	55702
#	78662
#	90330
#	104435
#	127505
#	152462
#	158087
#
# Disc length: 2861 seconds
#
# Revision: 1
# Processed by: cddbd v1.5.2PL0 Copyright (c) Steve Scherf et al.
# Submitted via: EZCDAudioConverter 6.0.5.1
#
DISCID=5c0b2b09
DTITLE=The Marshall Tucker Band
DYEAR=2011
DGENRE=Country
TTITLE0=Take the Highway
TTITLE1=Can't You See
TTITLE2=Losing You
TTITLE3=Hillbilly Band
TTITLE4=See You Later, I'm Gone
TTITLE5=Ramblin'
TTITLE6=My Jesus Told Me So
TTITLE7=Ab's Song
TTITLE8=Everyday (I Have the Blues) (live)
EXTD=
EXTT0=
EXTT1=
EXTT2=
EXTT3=
EXTT4=
EXTT5=
EXTT6=
EXTT7=
EXTT8=
PLAYORDER=
